<svg xmlns="http://www.w3.org/2000/svg" width="25" height="15.564" viewBox="0 0 25 15.564">
  <g id="google-plus" transform="translate(-0.021 0.001)">
    <path id="Fill-186" d="M118.079,175.235a7.748,7.748,0,0,1,7.742-7.376,7.863,7.863,0,0,1,5.18,1.919,27.775,27.775,0,0,1-1.969,2.04,5.116,5.116,0,0,0-6.037-.155,4.976,4.976,0,0,0-.207,7.754c2.362,2.144,6.821,1.079,7.475-2.2-1.478-.022-2.961,0-4.44-.048,0-.882-.007-1.761,0-2.653,2.473-.008,4.944-.011,7.419.008a8.906,8.906,0,0,1-1.4,6.008,7.656,7.656,0,0,1-8.836,2.35,7.776,7.776,0,0,1-4.926-7.639" transform="translate(-118.05 -167.86)" fill="#dd5245" fill-rule="evenodd"/>
    <path id="Fill-187" d="M313.784,218h2.206c0,.739.007,1.481.014,2.219.737.007,1.478.007,2.216.014v2.207c-.738.008-1.475.011-2.216.019q-.011,1.112-.014,2.218H313.78c-.008-.737-.008-1.476-.014-2.215l-2.216-.022v-2.207q1.1-.011,2.216-.014c0-.742.011-1.481.018-2.219" transform="translate(-293.199 -213.25)" fill="#dd5245" fill-rule="evenodd"/>
  </g>
</svg>
